<?xml version="1.0" encoding="iso-8859-1"?>
<!-- Generator: Adobe Illustrator 16.0.0, SVG Export Plug-In . SVG Version: 6.00 Build 0)  -->
<!DOCTYPE svg PUBLIC "-//W3C//DTD SVG 1.1//EN" "http://www.w3.org/Graphics/SVG/1.1/DTD/svg11.dtd">
<svg version="1.1" id="Capa_1" xmlns="http://www.w3.org/2000/svg" xmlns:xlink="http://www.w3.org/1999/xlink" x="0px" y="0px"
	 width="612px" height="612px" viewBox="0 0 612 612" style="enable-background:new 0 0 612 612;" xml:space="preserve">
<g>
	<g>
		<circle cx="486.818" cy="180.819" r="41.727"/>
		<path d="M608.105,556.363c2.142,0,3.895-1.807,3.895-4.033V59.67c0-2.226-1.753-4.034-3.895-4.034H3.922
			C1.752,55.637,0,57.445,0,59.67v492.66c0,2.227,1.752,4.033,3.922,4.033H608.105z M27.818,83.455h556.363v445.092H27.818V83.455z"
			/>
		<path d="M414.741,271.645c-2.393-3.755-7.205-4.646-10.793-2.114l-76.862,54.051c-1.78,1.252-4.2,0.75-5.313-1.168l-90.576-156.45
			c-2.17-3.783-5.647-3.811-7.678,0.083l-8.958,17.247L55.581,489.879c-2.031,3.922-0.167,7.066,4.145,7.066h491.158
			c4.173,0,5.869-3.006,3.505-6.705L414.741,271.645z"/>
	</g>
</g>
<g>
</g>
<g>
</g>
<g>
</g>
<g>
</g>
<g>
</g>
<g>
</g>
<g>
</g>
<g>
</g>
<g>
</g>
<g>
</g>
<g>
</g>
<g>
</g>
<g>
</g>
<g>
</g>
<g>
</g>
</svg>
