<?xml version="1.0" encoding="utf-8"?>
<!-- Generator: Adobe Illustrator 16.0.0, SVG Export Plug-In . SVG Version: 6.00 Build 0)  -->
<!DOCTYPE svg PUBLIC "-//W3C//DTD SVG 1.1//EN" "http://www.w3.org/Graphics/SVG/1.1/DTD/svg11.dtd">
<svg version="1.1" id="Capa_1" xmlns="http://www.w3.org/2000/svg" xmlns:xlink="http://www.w3.org/1999/xlink" x="0px" y="0px"
	 width="15px" height="15px" viewBox="0 0 15 15" enable-background="new 0 0 15 15" xml:space="preserve">
<path d="M13.594,0H3.281C2.504,0,1.875,0.629,1.875,1.406v0.938H1.406C0.629,2.344,0,2.973,0,3.75v9.375C0,14.16,0.839,15,1.875,15
	h11.25C14.16,15,15,14.16,15,13.125V1.406C15,0.629,14.37,0,13.594,0z M14.063,13.125c0,0.517-0.421,0.938-0.938,0.938H1.875
	c-0.517,0-0.938-0.421-0.938-0.938V3.75c0-0.259,0.21-0.469,0.469-0.469h0.469v9.375c0,0.26,0.209,0.469,0.469,0.469
	s0.469-0.209,0.469-0.469V1.406c0-0.259,0.21-0.469,0.469-0.469h10.313c0.258,0,0.469,0.21,0.469,0.469V13.125z M9.14,6.096h3.75
	c0.13,0,0.234-0.105,0.234-0.234S13.02,5.627,12.89,5.627H9.14c-0.129,0-0.234,0.105-0.234,0.234S9.011,6.096,9.14,6.096z
	 M9.14,4.69h3.75c0.13,0,0.234-0.105,0.234-0.234S13.02,4.221,12.89,4.221H9.14c-0.129,0-0.234,0.105-0.234,0.234
	S9.011,4.69,9.14,4.69z M9.14,3.284h3.75c0.13,0,0.234-0.105,0.234-0.234S13.02,2.815,12.89,2.815H9.14
	c-0.129,0-0.234,0.105-0.234,0.234S9.011,3.284,9.14,3.284z M7.734,12.658h-3.75c-0.129,0-0.234,0.105-0.234,0.234
	c0,0.13,0.105,0.234,0.234,0.234h3.75c0.129,0,0.234-0.104,0.234-0.234C7.969,12.764,7.864,12.658,7.734,12.658z M7.734,11.252
	h-3.75c-0.129,0-0.234,0.105-0.234,0.234c0,0.13,0.105,0.234,0.234,0.234h3.75c0.129,0,0.234-0.104,0.234-0.234
	C7.969,11.357,7.864,11.252,7.734,11.252z M7.734,9.846h-3.75c-0.129,0-0.234,0.105-0.234,0.234c0,0.13,0.105,0.234,0.234,0.234
	h3.75c0.129,0,0.234-0.104,0.234-0.234C7.969,9.951,7.864,9.846,7.734,9.846z M12.891,12.658h-3.75c-0.13,0-0.234,0.105-0.234,0.234
	c0,0.13,0.104,0.234,0.234,0.234h3.75c0.129,0,0.234-0.104,0.234-0.234C13.125,12.764,13.02,12.658,12.891,12.658z M12.891,11.252
	h-3.75c-0.13,0-0.234,0.105-0.234,0.234c0,0.13,0.104,0.234,0.234,0.234h3.75c0.129,0,0.234-0.104,0.234-0.234
	C13.125,11.357,13.02,11.252,12.891,11.252z M12.891,9.846h-3.75c-0.13,0-0.234,0.105-0.234,0.234c0,0.13,0.104,0.234,0.234,0.234
	h3.75c0.129,0,0.234-0.104,0.234-0.234C13.125,9.951,13.02,9.846,12.891,9.846z M12.891,7.033H3.984
	c-0.129,0-0.234,0.105-0.234,0.234s0.105,0.234,0.234,0.234h8.906c0.129,0,0.234-0.105,0.234-0.234S13.02,7.033,12.891,7.033z
	 M12.891,8.439H3.984c-0.129,0-0.234,0.105-0.234,0.234c0,0.13,0.105,0.234,0.234,0.234h8.906c0.129,0,0.234-0.104,0.234-0.234
	C13.125,8.545,13.02,8.439,12.891,8.439z M4.219,6.094H7.5c0.259,0,0.469-0.209,0.469-0.469V2.346c0-0.259-0.209-0.469-0.469-0.469
	H4.219c-0.259,0-0.469,0.209-0.469,0.469v3.279C3.75,5.884,3.959,6.094,4.219,6.094z M4.688,2.813h2.344v2.344H4.688V2.813z"/>
</svg>
