<?xml version="1.0" encoding="utf-8"?>
<!-- Generator: Adobe Illustrator 16.0.0, SVG Export Plug-In . SVG Version: 6.00 Build 0)  -->
<!DOCTYPE svg PUBLIC "-//W3C//DTD SVG 1.1//EN" "http://www.w3.org/Graphics/SVG/1.1/DTD/svg11.dtd">
<svg version="1.1" id="Layer_1" xmlns="http://www.w3.org/2000/svg" xmlns:xlink="http://www.w3.org/1999/xlink" x="0px" y="0px"
	 width="256px" height="256px" viewBox="0 0 256 256" enable-background="new 0 0 256 256" xml:space="preserve">
<g>
	<path d="M185.257,96.81c0-14.372-11.693-26.066-26.068-26.066h-62.38c-14.372,0-26.065,11.694-26.065,26.066v62.382
		c0,14.372,11.694,26.066,26.065,26.066h62.382c14.374,0,26.067-11.694,26.067-26.066h-0.001V96.81z M128,163.873
		c-19.781,0-35.873-16.092-35.873-35.871c0-19.781,16.092-35.874,35.873-35.874s35.875,16.093,35.875,35.874
		C163.874,147.781,147.78,163.873,128,163.873z M171.784,97.12c-1.688,1.679-4.018,2.651-6.406,2.651
		c-2.379,0-4.72-0.973-6.398-2.651c-1.688-1.689-2.66-4.027-2.66-6.407c0-2.389,0.973-4.728,2.66-6.407
		c1.68-1.688,4.02-2.652,6.398-2.652c2.389,0,4.727,0.964,6.406,2.652c1.688,1.679,2.65,4.018,2.65,6.407
		C174.435,93.093,173.473,95.431,171.784,97.12z"/>
	<path d="M128,104.479c-12.97,0-23.521,10.552-23.521,23.521c0,12.969,10.552,23.52,23.521,23.52
		c12.969,0,23.522-10.551,23.522-23.52C151.521,115.031,140.969,104.479,128,104.479z"/>
	<path d="M128,0C57.308,0,0,57.308,0,128s57.308,128,128,128s128-57.308,128-128S198.692,0,128,0z M197.609,159.191
		c0,21.183-17.233,38.418-38.421,38.418h-62.38c-21.184,0-38.418-17.235-38.418-38.418V96.81c0-21.184,17.234-38.419,38.418-38.419
		h62.38c21.188,0,38.422,17.235,38.421,38.419V159.191z"/>
</g>
</svg>
